<?xml version="1.0" encoding="utf-8"?>
<!-- Generator: Adobe Illustrator 24.0.1, SVG Export Plug-In . SVG Version: 6.00 Build 0)  -->
<svg version="1.1" id="Layer_1" xmlns="http://www.w3.org/2000/svg" xmlns:xlink="http://www.w3.org/1999/xlink" x="0px" y="0px"
	 viewBox="0 0 57.5 19.4" style="enable-background:new 0 0 57.5 19.4;" xml:space="preserve">
<style type="text/css">
	.st0{fill:#231F20;}
	.st1{fill:#2D2D2D;}
	.st2{fill:#D1D2CD;}
</style>
<title>logo</title>
<path class="st0" d="M18.6,7.4v2.8c0,0.1-0.1,0.2-0.2,0.2h-2.6V13c0,0.1-0.1,0.2-0.2,0.2H13c-0.1,0-0.2-0.1-0.2-0.2v-2.8
	c0-0.1,0.1-0.2,0.2-0.2h2.6V7.5H13c-0.1,0-0.2-0.1-0.2-0.2V4.6c0-0.1,0.1-0.2,0.2-0.2h2.8c0.1,0,0.2,0.1,0.2,0.2v2.6h2.6
	C18.5,7.2,18.6,7.3,18.6,7.4z"/>
<path class="st0" d="M42,7.5V10h2.6c0.1,0,0.2,0.1,0.2,0.2V13c0,0.1-0.1,0.2-0.2,0.2h-2.8c-0.1,0-0.2-0.1-0.2-0.2v-2.6H39
	c-0.1,0-0.2-0.1-0.2-0.2V7.4c0-0.1,0.1-0.2,0.2-0.2h2.6V4.6c0-0.1,0.1-0.2,0.2-0.2h2.8c0.1,0,0.2,0.1,0.2,0.2v2.8
	c0,0.1-0.1,0.2-0.2,0.2C44.6,7.5,42,7.5,42,7.5z"/>
<path class="st1" d="M57.4,2.6h-7.3V0H33.2v2.8h-8.8V0H7.5v2.6H0.2C0.1,2.6,0,2.7,0,2.8v2.8c0,0.1,0.1,0.2,0.2,0.2h4.4v8.1
	c0,0.1,0.1,0.2,0.2,0.2h2.6v2.6c0,0.1,0.1,0.2,0.2,0.2H10v2.6c0,0.1,0.1,0.2,0.2,0.2h8.3c0.1,0,0.2-0.1,0.2-0.2v-2.6h2.6
	c0.1,0,0.2-0.1,0.2-0.2v-2.6H24c0.1,0,0.2-0.1,0.2-0.2V11h2.6V5.5h4.1V11h2.6v2.8c0,0.1,0.1,0.2,0.2,0.2h2.6v2.6
	c0,0.1,0.1,0.2,0.2,0.2h2.6v2.6c0,0.1,0.1,0.2,0.2,0.2h8.3c0.1,0,0.2-0.1,0.2-0.2v-2.6h2.6c0.1,0,0.2-0.1,0.2-0.2V14h2.6
	c0.1,0,0.2-0.1,0.2-0.2V5.7h4.4c0.1,0,0.2-0.1,0.2-0.2V2.8C57.5,2.7,57.5,2.6,57.4,2.6L57.4,2.6z"/>
<path class="st1" d="M24,10.8h-2.8c-0.1,0-0.2,0.1-0.2,0.2v2.6h-2.6c-0.1,0-0.2,0.1-0.2,0.2v2.6h-7.9v-2.6c0-0.1-0.1-0.2-0.2-0.2
	H7.6V2.8H24V10.8L24,10.8z"/>
<path class="st1" d="M49.9,13.6h-2.6c-0.1,0-0.2,0.1-0.2,0.2v2.6h-7.9v-2.6c0-0.1-0.1-0.2-0.2-0.2h-2.6V11c0-0.1-0.1-0.2-0.2-0.2
	h-2.8v-8h16.4L49.9,13.6L49.9,13.6z"/>
<path class="st2" d="M33.6,2.8v8.1h2.8c0.1,0,0.2,0.1,0.2,0.2v2.6h2.6c0.1,0,0.2,0.1,0.2,0.2v2.6h7.9v-2.6c0-0.1,0.1-0.2,0.2-0.2
	h2.6V2.8H33.6L33.6,2.8z M44.8,7.4c0,0.1-0.1,0.2-0.2,0.2H42V10h2.6c0.1,0,0.2,0.1,0.2,0.2V13c0,0.1-0.1,0.2-0.2,0.2h-2.8
	c-0.1,0-0.2-0.1-0.2-0.2v-2.6H39c-0.1,0-0.2-0.1-0.2-0.2V7.4c0-0.1,0.1-0.2,0.2-0.2h2.6V4.6c0-0.1,0.1-0.2,0.2-0.2h2.8
	c0.1,0,0.2,0.1,0.2,0.2V7.4z"/>
<path class="st2" d="M7.6,2.8v10.9h2.6c0.1,0,0.2,0.1,0.2,0.2v2.6h7.9v-2.6c0-0.1,0.1-0.2,0.2-0.2h2.6V11c0-0.1,0.1-0.2,0.2-0.2H24
	v-8H7.6L7.6,2.8z M18.6,10.1c0,0.1-0.1,0.2-0.2,0.2h-2.6v2.6c0,0.1-0.1,0.2-0.2,0.2H13c-0.1,0-0.2-0.1-0.2-0.2v-2.8
	c0-0.1,0.1-0.2,0.2-0.2h2.6V7.5H13c-0.1,0-0.2-0.1-0.2-0.2V4.6c0-0.1,0.1-0.2,0.2-0.2h2.8c0.1,0,0.2,0.1,0.2,0.2v2.6h2.6
	c0.1,0,0.2,0.1,0.2,0.2v2.7H18.6z"/>
</svg>
