<svg xmlns="http://www.w3.org/2000/svg" viewBox="0 0 447.93 457.43"><title>outline</title><path d="M158.69,297.76V298c0,.1-.09.1-.09.19a.35.35,0,0,1-.19.1h-.19l-13.23-.1.29,13.7V312c0,.1-.1.1-.1.19a.31.31,0,0,1-.19.1h-.19l-14.56-.19h-.19c-.09,0-.09-.1-.19-.1s-.1-.09-.1-.19v-.19l-.38-15.13v-.19c0-.09.1-.09.1-.19a.32.32,0,0,1,.19-.09H142.9L142.61,284l-13,.1h-.19c-.09,0-.09-.1-.19-.1s-.09-.09-.09-.19,0-.19-.1-.19l-.38-15.22v-.2c0-.09.1-.09.1-.19s.09-.09.19-.09h.19l14.65-.29h.19c.1,0,.1.1.19.1s.1.09.1.19a.36.36,0,0,0,.09.19l.29,13.8,13.32-.1h.19c.1,0,.1.1.19.1s.1.09.1.19a.36.36,0,0,0,.09.19Z" transform="translate(-11.28 -11.53)" style="fill:none;stroke:#000;stroke-miterlimit:10;stroke-width:4px"/><path d="M284.88,283.2l-15.32.1v13h15.32a.33.33,0,0,1,.28.1.32.32,0,0,1,.19.09.35.35,0,0,1,.1.19c0,.1.1.19.1.29v16.94c0,.09-.1.09-.1.19s-.1.09-.19.09H285L267.85,314h-.29a.32.32,0,0,1-.19-.09c-.1-.1-.1-.1-.1-.19s-.09-.19-.09-.29V298.81l-15-.1h-.28a.32.32,0,0,1-.19-.09.35.35,0,0,1-.1-.19c0-.1-.09-.19-.09-.29l-.1-16.37a.33.33,0,0,1,.1-.28.32.32,0,0,1,.09-.19c.1-.1.1-.1.19-.1h.29l15.13-.09V266a.32.32,0,0,1,.09-.19c.1-.1.1-.1.19-.1s.19-.09.29-.09l17.32-.29h.28a.35.35,0,0,1,.2.1c.09.09.09.09.09.19s.1.19.1.28v17a.21.21,0,0,1-.19.2c-.1.09-.1.09-.2.09Z" transform="translate(-11.28 -11.53)" style="fill:none;stroke:#000;stroke-miterlimit:10;stroke-width:4px"/><path d="M360.63,274.35c0-5.14-1.71-6.76-6.28-5.42-6.85,1.9-13.9,2.28-20.84,2.28v9.61c0,6.38.09,12.85.09,18.65v14.94c0,3.91-.09,6.47-.09,7,0,.19-.1.28-.19.47a2.59,2.59,0,0,1-.38.48,1.75,1.75,0,0,1-.77.47c-.38.1-.76.38-1.23.48-.19.09-.38.09-.48.19a1.08,1.08,0,0,1-.47.09c-.1,0-.38.1-.48.1a4.71,4.71,0,0,0-.48.09,18.12,18.12,0,0,0-1.8.48,6.7,6.7,0,0,0-1.62.86,3.81,3.81,0,0,0-1.14,1.61,6.21,6.21,0,0,0-.48,2.86l-.48,9.9v.09h-.09l-8.56.48h-.1a3.35,3.35,0,0,0-1.05.38,3.1,3.1,0,0,0-.85.76,4.2,4.2,0,0,0-.57,1.14,6.18,6.18,0,0,0-.19,1.33v4.95a2.91,2.91,0,0,1-.19.95c-.1.29-.29.48-.39.76s-.38.48-.66.48a2.22,2.22,0,0,1-.86.19c-4.57.29-8.85.38-13,.48l-11.61.28H274.41l-11.13-.28c-1.33-.1-2.76-.1-4.19-.19s-2.85-.1-4.38-.19-3-.19-4.57-.19l-4.66-.29c-.19,0-.28,0-.38-.09a.74.74,0,0,1-.38-.2c-.09-.09-.28-.19-.38-.28l-.38-.38a3.32,3.32,0,0,1-.29-.57,3,3,0,0,1-.19-.86,3.1,3.1,0,0,1-.09-.86c0-.28-.1-.47-.1-.66v-3.43A3,3,0,0,0,243,342a12.08,12.08,0,0,0-.57-1.14,2.45,2.45,0,0,0-.95-.76,4.6,4.6,0,0,0-1.05-.38l-7.52-.19a1.27,1.27,0,0,1-.76-.29c-.29-.09-.38-.38-.57-.47-.19-.29-.38-.48-.38-.77s-.19-.57-.19-.95l-.1-9.89a3.45,3.45,0,0,0-.38-1.72,4.16,4.16,0,0,0-.76-1.42,3.88,3.88,0,0,0-1.14-1,2.53,2.53,0,0,0-1.43-.48,5.91,5.91,0,0,0-1.24-.19,5.27,5.27,0,0,0-1.14-.09c-.38,0-.76-.1-1.05-.1a3.1,3.1,0,0,1-.95-.09,8.11,8.11,0,0,1-1.71-.19,3.59,3.59,0,0,1-1.05-.29.75.75,0,0,1-.47-.47,2.42,2.42,0,0,1-.38-.67,8.89,8.89,0,0,1-.48-2.09,24.72,24.72,0,0,1-.38-3.15c-.09-1.33-.28-2.75-.38-4.37s-.29-3.62-.38-5.81c-.1-.76-.1-1.52-.19-2.28s-.1-1.62-.19-2.57-.1-1.81-.19-2.76a27.43,27.43,0,0,1-.19-2.95,5,5,0,0,0-.38-1.71,6.94,6.94,0,0,0-.76-1.43,4.82,4.82,0,0,0-1.15-1,2.43,2.43,0,0,0-1.42-.38,4.29,4.29,0,0,1-.48-.1c-.19-.09-.38-.19-.38-.38s-.29-.38-.29-.47a1.72,1.72,0,0,1-.09-.67l-.1-8.66a3.45,3.45,0,0,0-.85-2,5.7,5.7,0,0,0-2.1-1.33,12,12,0,0,0-3-.76,19.62,19.62,0,0,0-3.33-.29,13,13,0,0,0-3.33.38,13.55,13.55,0,0,0-2.95.86,5.83,5.83,0,0,0-2,1.33,3.11,3.11,0,0,0-.76,2l.1,8.56a1.36,1.36,0,0,1-.1.67,2.25,2.25,0,0,1-.28.48l-.38.38a1.72,1.72,0,0,1-.48.19,2.16,2.16,0,0,0-1.33.38,3.24,3.24,0,0,0-1.05,1,10.69,10.69,0,0,0-.76,1.33,5,5,0,0,0-.28,1.71c-.1,1.05-.1,2-.19,3a24.74,24.74,0,0,0-.1,2.67c0,.86-.1,1.71-.1,2.47s-.09,1.53-.09,2.29c-.1,2.19-.19,4-.29,5.71s-.19,3.14-.28,4.28a27,27,0,0,1-.38,3.14c-.1.86-.29,1.52-.38,2a1.82,1.82,0,0,1-.86,1,2.41,2.41,0,0,1-1,.2c-.38,0-1,.09-1.61.09h-2a3.44,3.44,0,0,0-1,.1,5.32,5.32,0,0,0-1.24.19,2.66,2.66,0,0,0-1.23.38,3.24,3.24,0,0,0-1.05,1,4.27,4.27,0,0,0-.67,1.33,4.85,4.85,0,0,0-.28,1.62l.19,9.61a2.29,2.29,0,0,1-.1.86,3.6,3.6,0,0,1-.38.66,2.69,2.69,0,0,1-.57.48,1.83,1.83,0,0,1-.66.19l-7-.19a2.18,2.18,0,0,0-1,.28,6.3,6.3,0,0,0-.85.67,2.15,2.15,0,0,0-.48,1.05,6.66,6.66,0,0,0-.19,1.33V345c0,.29-.1.57-.1.86a2.61,2.61,0,0,1-.19.85c-.09.29-.19.48-.28.48l-.29.28a.48.48,0,0,1-.38.2.58.58,0,0,1-.38.09c-.09,0-.28.1-.38,0-1.43,0-2.85,0-4.28-.09s-2.67-.1-4-.1-2.57-.1-3.9-.1-2.47-.09-3.71-.09c-3.33-.1-6.57-.29-9.61-.48l-9.33-.57c-3.14-.28-6.28-.47-9.51-.85s-6.76-.67-10.47-1.15a1.7,1.7,0,0,1-.67-.19,1.07,1.07,0,0,1-.47-.47,2.28,2.28,0,0,1-.38-.67,2.13,2.13,0,0,1-.19-.85l-.1-4.38a4.24,4.24,0,0,0-.19-1.14,3.2,3.2,0,0,0-.48-1,2.31,2.31,0,0,0-.66-.66,1.44,1.44,0,0,0-.86-.38h0l-6.76-.86h0v-.09L97,325a8,8,0,0,0-.38-2.48,3.52,3.52,0,0,0-1-1.43,4.37,4.37,0,0,0-1.24-.76c-.38-.19-.95-.28-1.33-.47-.19,0-.29-.1-.38-.1s-.29-.09-.38-.09-.29-.1-.38-.19a.54.54,0,0,1-.39-.19,9.44,9.44,0,0,0-.95-.48c-.28-.19-.38-.38-.57-.47a1.94,1.94,0,0,1-.38-.48c-.09-.19-.09-.29-.19-.48-.09-.47-.09-2.85-.28-6.18s-.19-7.81-.29-12.94c-.09-4.95-.19-10.38-.29-15.8V282c-.09-5.61-.19-11.13-.28-16h0a4.32,4.32,0,0,0-.19-1.15c-.1-.38-.29-.66-.38-.95a2.22,2.22,0,0,0-.67-.66,1.49,1.49,0,0,0-.66-.38,9.74,9.74,0,0,0-1.91,2.09c-3.52,4.57-5.14,11.23-5.9,17.41a96.35,96.35,0,0,0-.38,16.85c-.09,37-.19,74.13,0,111.15,0,4.66,1.24,9.32,1.91,13.89,3.9,2.28,5.51,6.76,9.13,9.42a47.15,47.15,0,0,0,28.26,9.23q100.35.15,200.61,0c20.08,0,36.92-13.13,41.11-31.31a38.53,38.53,0,0,0,.66-9.32C360.53,359.81,360.44,317.08,360.63,274.35Zm-75.94,97.83a18.87,18.87,0,0,1-2.57,5.14,119.91,119.91,0,0,1-16.84,18.74,99.76,99.76,0,0,1-18.94,13.14,95.22,95.22,0,0,1-20.75,7.7,100.24,100.24,0,0,1-22.26,2.48A95.17,95.17,0,0,1,182,415.76a85.89,85.89,0,0,1-18.37-8,83.32,83.32,0,0,1-15.79-12.18,105.45,105.45,0,0,1-13.42-16,18.6,18.6,0,0,1-2.29-4.57,12.81,12.81,0,0,1-.57-4.47,10,10,0,0,1,1.05-4.09,11.19,11.19,0,0,1,2.57-3.43c.38-.38.86-.66,1.33-1.05a9.13,9.13,0,0,1,1.33-.66,8,8,0,0,1,1.34-.48,6.77,6.77,0,0,1,1.42-.19,6.55,6.55,0,0,1,2.29.38,12.2,12.2,0,0,1,2.28,1,13.24,13.24,0,0,1,2.19,1.81,11.33,11.33,0,0,1,2.09,2.57,77.86,77.86,0,0,0,11.42,13.22,67.87,67.87,0,0,0,13,9.52,64.4,64.4,0,0,0,14.37,5.9,63,63,0,0,0,15.23,2.09,59.57,59.57,0,0,0,15.7-2,65.08,65.08,0,0,0,15.51-6.09,75.78,75.78,0,0,0,14.75-10.47,89.92,89.92,0,0,0,13.23-15,17.15,17.15,0,0,1,2.38-2.76c.85-.76,1.71-1.42,2.56-2.09,1-.48,1.81-.95,2.67-1.33a9.31,9.31,0,0,1,2.85-.48,9.87,9.87,0,0,1,1.72.1,16.24,16.24,0,0,1,1.81.47c.57.19,1.14.48,1.71.67a11.33,11.33,0,0,1,1.71,1.05,14,14,0,0,1,3.52,3.61,10.66,10.66,0,0,1,1.62,4.47A10.87,10.87,0,0,1,284.69,372.18Z" transform="translate(-11.28 -11.53)" style="fill:none;stroke:#000;stroke-miterlimit:10;stroke-width:4px"/><path d="M284.69,372.18a18.87,18.87,0,0,1-2.57,5.14,119.91,119.91,0,0,1-16.84,18.74,99.76,99.76,0,0,1-18.94,13.14,95.22,95.22,0,0,1-20.75,7.7,100.24,100.24,0,0,1-22.26,2.48A95.17,95.17,0,0,1,182,415.76a85.89,85.89,0,0,1-18.37-8,83.32,83.32,0,0,1-15.79-12.18,105.45,105.45,0,0,1-13.42-16,18.6,18.6,0,0,1-2.29-4.57,12.81,12.81,0,0,1-.57-4.47,10,10,0,0,1,1.05-4.09,11.19,11.19,0,0,1,2.57-3.43c.38-.38.86-.66,1.33-1.05a9.13,9.13,0,0,1,1.33-.66,8,8,0,0,1,1.34-.48,6.77,6.77,0,0,1,1.42-.19,6.55,6.55,0,0,1,2.29.38,12.2,12.2,0,0,1,2.28,1,13.24,13.24,0,0,1,2.19,1.81,11.33,11.33,0,0,1,2.09,2.57,77.86,77.86,0,0,0,11.42,13.22,67.87,67.87,0,0,0,13,9.52,64.4,64.4,0,0,0,14.37,5.9,63,63,0,0,0,15.23,2.09,59.57,59.57,0,0,0,15.7-2,65.08,65.08,0,0,0,15.51-6.09,75.78,75.78,0,0,0,14.75-10.47,89.92,89.92,0,0,0,13.23-15,17.15,17.15,0,0,1,2.38-2.76c.85-.76,1.71-1.42,2.56-2.09,1-.48,1.81-.95,2.67-1.33a9.31,9.31,0,0,1,2.85-.48,9.87,9.87,0,0,1,1.72.1,16.24,16.24,0,0,1,1.81.47c.57.19,1.14.48,1.71.67a11.33,11.33,0,0,1,1.71,1.05,14,14,0,0,1,3.52,3.61,10.66,10.66,0,0,1,1.62,4.47A10.87,10.87,0,0,1,284.69,372.18Z" transform="translate(-11.28 -11.53)" style="fill:none;stroke:#000;stroke-miterlimit:10;stroke-width:4px"/><path d="M368.53,101.92c-4.57,0-5.71,4.09-7.43,7.13a128.78,128.78,0,0,1-24.64,31.22c-5,4.66-9.52,4-13.23-1.81-1.71-2.57-3.14-5.24-4.85-7.8-4.38-6.67-9.33-6.76-13.8-.19-9.9,14.46-22.37,26.36-36,37.11-7.71,6.09-8.09,9.13-1.53,16.46h0a2.58,2.58,0,0,1-.76.38,3.17,3.17,0,0,0-.76.38,7.54,7.54,0,0,0-1.43.86c-.38.38-.66.57-1,1s-.67.57-1,.86a7.83,7.83,0,0,1-1.05.85c-.38.29-.66.57-1,.86-.67.48-1.34,1.14-2,1.62a11.76,11.76,0,0,1-1.62,1.24c-.48.47-1,.76-1.62,1.23-.28.19-.38.38-.66.48l-.1.09a5.78,5.78,0,0,1-1,.67,11.71,11.71,0,0,1-1.42,1c-.38.29-.95.57-1.34.86l-1.42.85c-.38.29-.95.48-1.43.77s-.95.47-1.43.76l-.57.28c-.09,0-.19.1-.28.1a10,10,0,0,0-1,.57c-1.05.47-2,1-3.14,1.43s-2.09.95-3.14,1.33-2.09.85-3.14,1.23-2.19.67-3.24,1.05-2.19.57-3.33.95a82,82,0,0,1-13.89,2.29c-18.75,1.52-37.59,2-56.15-.48C137.09,204.6,77.14,184.23,77,184.23H74.86a1.26,1.26,0,0,1-.57-.09H73.9c-.19,0-.38,0-.47-.1-.29,0-.48-.09-.76-.09-.48-.1-1-.19-1.33-.29a3,3,0,0,1-.58-.19,11.54,11.54,0,0,1-1.14-.48,1.93,1.93,0,0,1-.47-.28,2.24,2.24,0,0,1-.48-.29c-.09-.09-.38-.19-.48-.38h0c-.19-.09-.38-.28-.38-.38-.28-.28-.57-.47-.85-.76a5.47,5.47,0,0,1-.76-.86h0c-.19-.19-.29-.38-.38-.47h0a.72.72,0,0,1-.19-.38,1,1,0,0,0-.39-.48h0a1.93,1.93,0,0,0-.28-.47l-.29-.57a2.13,2.13,0,0,1-.19-.58c-.09-.47-.28-.85-.38-1.33a1.91,1.91,0,0,1-.09-.66,1.81,1.81,0,0,1-.1-.67,28.77,28.77,0,0,1-.19-4.09v-1.05a14.48,14.48,0,0,1,.38-2.38,4.76,4.76,0,0,1,.29-.66h0c.09-.19.19-.48.38-.48s.19-.19.19-.29l.38-.38c.1,0,.19-.09.29-.09s.19-.1.28-.1h0a2.87,2.87,0,0,1,1.24,0,.56.56,0,0,1,.38.1c.09,0,.28.09.38.09s.28.1.38.1l.57.28a.67.67,0,0,1,.38.2c.1.09.29.09.38.19,2.48,1.33,5.14,2.66,7.62,4,1,.48,1.8.95,2.75,1.43.1.09.2.09.29.19.29.1.48.29.76.38A16.76,16.76,0,0,1,83.23,173c.1,0,.1.1.19.1s.19.09.29.19c.47.28,1,.47,1.61.76.1,0,.19.09.29.19.86.38,1.71.76,2.47,1.14,1,.48,2.29,1.05,3.33,1.43a16,16,0,0,0,1.72.67c1,.47,2.28,1,3.42,1.33l1.72.66a12.09,12.09,0,0,0,1.71.67c.19.1.38.1.47.19a14.9,14.9,0,0,1,2.19.86c.76.28,1.43.47,2.19.76a14,14,0,0,0,2.1.66c1.52.48,2.95,1,4.47,1.43.47.19.95.29,1.43.48H113c1.14.38,2.28.66,3.42.95h.19c.38.09.76.28,1.14.38s.86.29,1.24.38c.95.29,1.81.48,2.67.67a.35.35,0,0,1,.28.09c.76.19,1.52.38,2.19.48.29.09.48.09.76.19h.1a18.46,18.46,0,0,0,2.28.47c.29.1.57.1.86.19.66.19,1.42.29,2.09.48a.58.58,0,0,1,.38.09,4.55,4.55,0,0,0,1.14.2c.29,0,.38.09.67.09h.19c.38.1.67.1.95.19.76.1,1.62.29,2.38.38,1,.1,1.81.29,2.66.38a.57.57,0,0,1,.39.1l2.47.28h.38a22.22,22.22,0,0,0,2.57.19h.09c11.71.67,23.61,2.19,35-2,3.14-1.14,6.48-2.09,6.57-6.28s-2.76-5.9-6.28-7.13c-.76-.29-1.52-.48-2.28-.76-1.53-.48-3-1.05-4.57-1.53-3.05-1-6.09-2.19-9-3.33-.76-.38-1.52-.57-2.19-.95-11.33-5.14-22.27-10.85-28.07-23.22,14.18-.48,28.35.48,42.53-1.33,3.14-.48,6.76-.1,8.57-3.24,2.47-4.18-2.67-19.12-7-20.93a6.8,6.8,0,0,0-3.9-.29c-11,3.14-22.27,6.38-32.93,10.66-6.28,2.47-9.61,6.66-8.37,13.8h0a17.4,17.4,0,0,1-2.28-.1c-.77,0-1.53-.09-2.29-.09l-3-.29c-.67-.09-1.34-.09-2-.19s-1.33-.09-2-.19l-2-.28c-.85-.1-1.71-.19-2.47-.29-1-.09-1.81-.28-2.67-.38-1.62-.19-3.14-.48-4.66-.57h-.67c-17.13-2.19-33.21-7.14-47.39-17.61l-2.28-1.71c-1.24-1-2.48-1.9-3.71-3a10.62,10.62,0,0,0-1.14-1c-.19-.19-.38-.29-.48-.48s-.38-.28-.48-.47l-.19-.19c-.28-.19-.38-.48-.66-.57-1.05-1-2.1-2.1-3.05-3.14a4,4,0,0,0-.57-.67h0c-.19-.19-.38-.48-.47-.57a1.48,1.48,0,0,1-.38-.57c-.2-.29-.39-.48-.58-.76a7.12,7.12,0,0,1-.57-.86,2.38,2.38,0,0,1-.47-.86,15.63,15.63,0,0,1-.95-1.8c-.29-.57-.48-1.15-.77-1.72h0a21.08,21.08,0,0,1-.85-2.28,18.22,18.22,0,0,1-.57-2.47h0c22.26,7,45,7.7,68,6.75,3.8-.19,7.52-.66,11.32-1a188.77,188.77,0,0,0,38.07-7.51c-.67-1.14-.76-1.53-1-1.72C137,86.79,122.44,69.47,118.73,43.87c-1.34-9.33-1.72-18.94.57-28.36,4.56,1.81,7.71,5.42,11.61,8.28a172.35,172.35,0,0,0,52.34,25.88c-4.48,3.52-10.09,4.38-14.66,7.71C165,60,162.6,63.19,163,67.47c.38,4.76,3.9,7.13,8.09,8.85a108.61,108.61,0,0,0,25.78,6.85c17.13,2.38,34.26,3.9,51.49,1.43,5.23-.76,6.75-3.14,5-8.66a78.32,78.32,0,0,0-7.8-17.51c-.29-.86-.19-1.81-1.34-2.1-2.47-6.85-6.47-13.22-7.61-20.55a33.8,33.8,0,0,1-.66-6.85c.38-8.76,7.23-13.23,15-9.52,15,7.23,30,14.85,44.92,22.27,4.38,2.19,8.85,4.19,13.23,6.37-3.91,14.28-14.47,24.08-25.22,33.22-15.23,13.13-34.07,19-52.63,24.93-8.09,2.57-16.46,4.47-24.64,6.85-3.53,1-6.86,2.86-6,7.14,1.05,5,3.05,10,4.57,15,1.14,3.62,3.8,4.57,7.23,4,10.94-2.09,21.89-4.09,32.64-7.14,6.85-2,8.09-4.09,5.33-10.94-1.9-5-.29-7.9,4-9.9,5.14-2.38,8.75-.47,10.94,6.28,1.71,5,4.19,6.28,8.95,4.38,17.41-6.85,34.16-15.13,46.72-30,7.9-9.23,15.51-18.84,12.85-32.54,4.47,2.19,8.85,4.19,13.32,6.37,1.81,9.52,4.66,18.47,11.42,25.6.95,1,1.81,1.91,2.66,2.86C363.1,96.3,365.86,99.16,368.53,101.92Z" transform="translate(-11.28 -11.53)" style="fill:none;stroke:#000;stroke-miterlimit:10;stroke-width:4px"/><path d="M425.05,341.25c-4.95,1.62-5.52,4.38-5.52,8.85-.09,21.89.57,43.68-.66,65.57-.95,17.22-7.52,30.07-22.18,40.06C384.42,464.2,372.05,467,357.87,467c-75.08-.29-150.17-.1-225.06-.19-22,0-36.83-12.56-48.34-30.17a22.38,22.38,0,0,1-3.81-12.08c3.9,2.28,5.52,6.75,9.14,9.42a47.17,47.17,0,0,0,28.26,9.23q100.35.13,200.6,0c20.08,0,36.92-13.13,41.11-31.31a38.62,38.62,0,0,0,.67-9.33c0-42.72-.1-85.45.09-128.27,0-5.14-1.71-6.76-6.28-5.43-6.85,1.9-13.89,2.28-20.84,2.28-2.47,0-4.85-.09-7.42-.19-5-.19-9.42-1.8-10.28-7.89,4.19,2.66,8.66,4.09,13.51,3,1.34-.38,2.67-.57,4-1a129,129,0,0,0,18.84-5.71,176,176,0,0,0,30.46-15.89,22.3,22.3,0,0,1-.39,3.14c-2.75,15.9-6.18,31.69-7.61,47.77-.47,6.38,1.14,11.33,6,15.42s8.85.57,12.84-1.52c11.71-6.47,20.37-15.32,23-29.41,1.15-6.09,2.57-12.18,3.14-18.36.38-3.52,1.53-5,5.43-3.81,6.94,2.09,12.46,6.47,18.17,10.56a17.4,17.4,0,0,0,2.19,4.1C463,293.38,455.12,331.45,425.05,341.25Z" transform="translate(-11.28 -11.53)" style="fill:none;stroke:#000;stroke-miterlimit:10;stroke-width:4px"/><path d="M332.94,58.71C335.7,72.51,328,82,320.09,91.26c-12.56,14.75-29.31,23-46.73,29.88-4.75,1.9-7.42.67-8.94-4.38-2.19-6.85-5.9-8.66-10.94-6.37-4.19,2-6,5-4,9.89,2.66,6.85,1.52,8.95-5.33,10.95-10.75,3.14-21.7,5-32.64,7.13-3.33.57-6-.38-7.23-4-1.62-5.05-3.52-9.9-4.57-15-.86-4.28,2.47-6.09,6-7.14,8.19-2.28,16.56-4.18,24.65-6.85,18.65-5.9,37.5-11.7,52.63-24.83,10.65-9.24,21.31-18.94,25-33.79A153.94,153.94,0,0,1,332.94,58.71Z" transform="translate(-11.28 -11.53)" style="fill:none;stroke:#000;stroke-miterlimit:10;stroke-width:4px"/><path d="M247.39,83.46c-17.23,2.47-34.36,1-51.49-1.34a107.14,107.14,0,0,1-25.79-6.85c-4.18-1.71-7.7-4.09-8.09-8.85-.38-4.28,2-7.52,5.62-10.09,4.57-3.23,10.28-4.18,14.65-7.7,7.33,1.61,14.47,3.23,21.8,4.94-3.05,7.52-1.34,11.33,4.75,11.23,5.43-.09,7.43-3.71,8.09-8.47a1.3,1.3,0,0,1-.28-.85c7.33.57,14.46,1.33,21.79,1.9,1.33,0,2.76.1,4.09.1.19-.67.38-1.34.57-2.1,1.14.19,1.05,1.24,1.34,2.1A78.32,78.32,0,0,1,252.24,75C254.05,80.31,252.62,82.69,247.39,83.46Z" transform="translate(-11.28 -11.53)" style="fill:none;stroke:#000;stroke-miterlimit:10;stroke-width:4px"/><path d="M118.54,14.56c-2.29,9.42-1.91,19-.58,28.36,3.62,25.5,18.09,42.91,40.54,53.76.29.1.38.57,1.05,1.72-12.66,3.9-25.22,6-38.06,7.51.19-2.38-1.72-3.8-2.95-5.33C100.55,77.36,97.22,51.1,103.79,23,105.59,14.56,111,11.8,118.54,14.56Z" transform="translate(-11.28 -11.53)" style="fill:none;stroke:#000;stroke-miterlimit:10;stroke-width:4px"/><path d="M217,56.14c-.76,4.86-2.67,8.38-8.09,8.47-6.09.1-7.71-3.71-4.76-11.23,4.19.57,8.38,1.34,12.56,1.91A8.28,8.28,0,0,0,217,56.14Z" transform="translate(-11.28 -11.53)" style="fill:none;stroke:#000;stroke-miterlimit:10;stroke-width:4px"/><path d="M171.54,236.29a58.93,58.93,0,0,0-6-.29c-2.29,0-4.57-.1-7.05,0h-4.75c-7.43.29-15.71.86-23.7,1.62-6.76.66-13.51,1.43-19.6,2.28V213.07c6,2.76,11.23,5,16.56,7.61A183.53,183.53,0,0,0,171.54,236.29Z" transform="translate(-11.28 -11.53)" style="fill:none;stroke:#000;stroke-miterlimit:10;stroke-width:4px"/><path d="M337.6,199.55c-1.9,11.8-6.38,22.56-12.37,32.74a21.88,21.88,0,0,1-1.72,2.76c-1.33-.1-2.75-.19-4.28-.38-3.14-.29-6.66-.48-10.27-.67-8.76-.47-18.28-1.05-27.89-1.33-8.09-.29-16.27-.38-23.79-.19C285.45,225.06,311.62,212.88,337.6,199.55Z" transform="translate(-11.28 -11.53)" style="fill:none;stroke:#000;stroke-miterlimit:10;stroke-width:4px"/><path d="M374.05,106.87c3.61,12.84-3.62,21.88-10.28,31-9.52,12.94-22.55,20.84-36.26,28.07-3.14,1.62-6.75,2.76-9.42,5.23-10.94,3.43-21.6,7.71-32.83,10-6,1.33-12.09,3-18.27,2.66-6.57-7.33-6.19-10.37,1.52-16.46,13.51-10.76,26.08-22.56,36-37.12,4.57-6.66,9.52-6.47,13.8.2,1.71,2.56,3.14,5.32,4.85,7.8,3.81,5.8,8.19,6.37,13.23,1.81A128.82,128.82,0,0,0,361,108.86c1.81-3.14,2.85-7,7.42-7.13C371.19,102.49,372.33,105.15,374.05,106.87Z" transform="translate(-11.28 -11.53)" style="fill:none;stroke:#000;stroke-miterlimit:10;stroke-width:4px"/><path d="M339.79,189.56c-.38,3.43-1.52,6.76-2.29,10.09-25.79,12.85-53.38,26.83-82,33.11-10.37,1.62-25.4-1.71-35.59,6.67-38.06,3.71-75.08-8.57-109.72-26v26.83c-8.56,1.14-21.31,3.05-28.45,4.57a78.09,78.09,0,0,0,.19,17.61c.38,0,3.8.76,5,1-4.47,3.81-7,12.28-7.9,19.51-30.16-2.28-17.6-40.16-16.46-61.66,0-11.33-17.22-12-24.08-20-36-32.73-35-49,13-40.44C33.84,139.89,11.67,90.4,42,100.3h0c.38,1.24-.39-.38,1.42,4.85,17.32,29.79,55.48,36.93,88.69,38.35,10.28,18.56,27.7,24.55,47.39,31.22,25.79,14.46-31.87,32.26-113.62-9.81-2.28-.28-3.71,10.09.1,15.52h0a8.59,8.59,0,0,0,2,1.9h0c59.86,18.17,109.16,38.06,166.54,21.41,11.13-3.43,20.17-10.56,31.59-19.32,16.66-1,35.12-7.33,52-13C329.32,175.48,342.17,173.19,339.79,189.56Z" transform="translate(-11.28 -11.53)" style="fill:none;stroke:#000;stroke-linejoin:round;stroke-width:4px"/><path d="M42.12,100.11c.19.85.38,1.71.57,2.47a11,11,0,0,1-.57-2.47Z" transform="translate(-11.28 -11.53)" style="fill:none;stroke:#000;stroke-miterlimit:10;stroke-width:4px"/><path d="M43.55,105a23.52,23.52,0,0,1-.86-2.28A23.52,23.52,0,0,0,43.55,105Z" transform="translate(-11.28 -11.53)" style="fill:none;stroke:#000;stroke-miterlimit:10;stroke-width:4px"/><path d="M129.86,143.12c.76,0,1.52.1,2.28.1h0A17.4,17.4,0,0,1,129.86,143.12Z" transform="translate(-11.28 -11.53)" style="fill:none;stroke:#000;stroke-miterlimit:10;stroke-width:4px"/><path d="M237.77,202.31c-1,.48-2.09.86-3.14,1.24C235.59,203.17,236.73,202.79,237.77,202.31Z" transform="translate(-11.28 -11.53)" style="fill:none;stroke:#000;stroke-miterlimit:10;stroke-width:4px"/><path d="M244,199.55a31,31,0,0,1-3.14,1.43A24.71,24.71,0,0,0,244,199.55Z" transform="translate(-11.28 -11.53)" style="fill:none;stroke:#000;stroke-miterlimit:10;stroke-width:4px"/><path d="M264,185.47a7.24,7.24,0,0,1,1.43-.86,4.11,4.11,0,0,0-1.43.86c-.38.38-.67.57-1.05.95C263.37,186,263.66,185.85,264,185.47Z" transform="translate(-11.28 -11.53)" style="fill:none;stroke:#000;stroke-miterlimit:10;stroke-width:4px"/><path d="M333.51,299.47c0-5.9,0-12.27-.1-18.65v-9.61c-2.47,0-4.85-.1-7.42-.19-5-.19-9.42-1.81-10.28-7.9-2.57-5.23-3.42-10.47.29-15.51,2.47-4.09,4.95-8.28,7.42-12.47-1.33-.09-2.76-.19-4.28-.38-3.14-.28-6.66-.47-10.28-.66-8.75-.48-18.27-1-27.88-1.34-8.09-.28-16.28-.38-23.79-.19-1.24,0-2.48.1-3.62.1a7.69,7.69,0,0,0-1.43.09,6,6,0,0,0-1.33.1,6.61,6.61,0,0,0-1.33.09,6,6,0,0,0-1.33.1c-2.76.19-5.33.38-7.81.48-2.47.28-4.66.47-6.75.76s-3.9.57-5.62,1a25.84,25.84,0,0,0-4.28,1.24,10.84,10.84,0,0,0-1.81.76,4.06,4.06,0,0,0-1.9,2v.09a5.94,5.94,0,0,0,0,2.28c.09,1,.19,2.1.19,3.53a8.35,8.35,0,0,1-.48,3,3.63,3.63,0,0,1-1.42,1.52,6.07,6.07,0,0,1-1.81.67,11,11,0,0,1-1.72.19c-1.9.1-3.52.1-4.85.19s-2.47.1-3.33.1-1.71.09-2.38.09a10.46,10.46,0,0,0-1.81.1h-1.8a23.65,23.65,0,0,0-2.38.09h-3.33c-1.34,0-3,.1-4.86.1a10,10,0,0,1-1.62-.1,15.57,15.57,0,0,1-1.8-.47,5.25,5.25,0,0,1-1.43-1.43,5.86,5.86,0,0,1-.57-2.86c0-1.33.09-2.57.09-3.42a5.83,5.83,0,0,0-.09-2.29,2,2,0,0,0-1.05-1.42,5.53,5.53,0,0,0-1.33-.67c-.1,0-.19-.1-.29-.1-3.23-.47-6.56-1-9.7-1.61-.38-.1-.67-.1-1.05-.19a58.93,58.93,0,0,0-6-.29c-2.29,0-4.57-.09-7,0h-4.75c-7.43.29-15.71.86-23.7,1.62-6.76.66-13.51,1.43-19.6,2.28-1,.19-2.1.29-3,.48-6.85,1-12.94,1.9-17.32,2.57s-7.42,1.33-8.09,1.43v.09c-.19,1.9-.28,3.33-.38,4.76s-.09,2.38-.09,3.61.09,2.29.19,3.81.28,3.14.38,5.23v.2h.47l4.57,1h.19a2.28,2.28,0,0,1,.67.38c.28.19.38.47.66.66a1.7,1.7,0,0,1,.38,1,3.87,3.87,0,0,1,.2,1.14h0c.09,4.95.19,10.47.28,16V283c.1,5.42.19,10.85.29,15.8s.19,9.51.28,12.94.19,5.61.29,6.18a1.45,1.45,0,0,0,.19.48,1.6,1.6,0,0,0,.38.48,2.36,2.36,0,0,0,.57.47,3,3,0,0,0,1,.48c.19.09.29.09.38.19a.47.47,0,0,1,.38.19c.19,0,.29.09.38.09s.29.1.38.1a10.93,10.93,0,0,1,1.34.47,9.21,9.21,0,0,1,1.23.77,3.74,3.74,0,0,1,1,1.42,6.1,6.1,0,0,1,.38,2.48l.48,8.66v.09h0l6.76.86h0a2.21,2.21,0,0,1,.85.38,4.23,4.23,0,0,1,.67.67,3,3,0,0,1,.48,1,5,5,0,0,1,.19,1.14l.09,4.38a2.89,2.89,0,0,0,.19.85,4.84,4.84,0,0,0,.38.67l.48.48a1.43,1.43,0,0,0,.66.19c3.72.47,7.14.85,10.47,1.14s6.47.57,9.52.85,6.18.48,9.32.58,6.28.38,9.62.47c1.14.1,2.47.1,3.71.1s2.47.09,3.9.09,2.66.1,4,.1,2.75.09,4.28.09h.38c.09,0,.28-.09.38-.09s.28-.1.38-.19l.28-.29a1.59,1.59,0,0,0,.29-.48,8,8,0,0,0,.19-.85c0-.29.1-.57.1-.86v-4.09a6,6,0,0,1,.19-1.33c.09-.38.38-.76.47-1.05a3.37,3.37,0,0,1,.86-.67,2.15,2.15,0,0,1,1.05-.28l6.94.19a1.43,1.43,0,0,0,.67-.19c.28-.1.38-.29.57-.48a5.76,5.76,0,0,0,.38-.66,1.35,1.35,0,0,0,.09-.86l-.19-9.61a4.49,4.49,0,0,1,.29-1.62,5.72,5.72,0,0,1,.67-1.33,4.48,4.48,0,0,1,1-.95,2.07,2.07,0,0,1,1.24-.38c.38-.1.86-.1,1.24-.19s.76-.1,1-.1h2a8.7,8.7,0,0,0,1.62-.09c.38-.1.76-.1,1.05-.19a.67.67,0,0,0,.47-.38c.1-.19.29-.48.38-.67a5.33,5.33,0,0,0,.38-2c.1-.86.29-1.9.38-3.14s.2-2.66.29-4.28.19-3.52.29-5.71c0-.76.09-1.52.09-2.29s.1-1.61.1-2.47.09-1.71.09-2.66.1-1.91.19-2.95a5,5,0,0,1,.29-1.72,3.12,3.12,0,0,1,.76-1.33,4.32,4.32,0,0,1,1.05-.95,2.14,2.14,0,0,1,1.33-.38.73.73,0,0,0,.47-.19c.19-.1.38-.19.38-.38s.29-.38.29-.48a1.67,1.67,0,0,0,.09-.66l-.09-8.57a3.47,3.47,0,0,1,.76-2,5.38,5.38,0,0,1,2-1.33,12.09,12.09,0,0,1,3-.86c1.14-.19,2.19-.28,3.33-.38a18.93,18.93,0,0,1,3.33.29,21.44,21.44,0,0,1,2.95.76,7.17,7.17,0,0,1,2.09,1.33,3.16,3.16,0,0,1,.86,2l.1,8.66c0,.29.09.48.09.67a1.92,1.92,0,0,0,.29.47,1.24,1.24,0,0,0,.38.38,1,1,0,0,0,.47.1,2.65,2.65,0,0,1,1.43.38,3.41,3.41,0,0,1,1.14.95,4.2,4.2,0,0,1,.76,1.43,5,5,0,0,1,.38,1.71c.1,1.05.19,2,.19,2.95s.1,1.81.19,2.76.1,1.71.2,2.57.09,1.62.19,2.28c.19,2.19.28,4.1.38,5.81s.28,3.14.38,4.38.28,2.28.38,3.14.28,1.52.47,2.09a1.57,1.57,0,0,0,.38.67,2.11,2.11,0,0,0,.48.47,7.71,7.71,0,0,0,1,.29c.38.09,1,.09,1.71.19a3.4,3.4,0,0,1,.95.09c.38,0,.67.1,1.05.1s.76.09,1.14.09a5.91,5.91,0,0,1,1.24.19,2.77,2.77,0,0,1,1.42.48,3.91,3.91,0,0,1,1.15,1.05A6.85,6.85,0,0,1,231,326a9.65,9.65,0,0,1,.38,1.72l.09,9.89a3.71,3.71,0,0,0,.19,1c.1.28.29.47.38.76a.71.71,0,0,0,.58.47c.28.1.47.19.76.29l7.51.19a1.41,1.41,0,0,1,1.05.38,3.54,3.54,0,0,1,.95.76,2.51,2.51,0,0,1,.57,1.14,3.4,3.4,0,0,1,.29,1.33v3.43a1.72,1.72,0,0,0,.09.67c0,.28.1.57.1.85s.09.57.19.86a1.47,1.47,0,0,0,.29.57,1.24,1.24,0,0,0,.38.38c.09.1.28.19.38.29s.28.09.38.19.28.09.38.09l4.66.29c1.52.09,3,.19,4.57.19s2.95.09,4.38.19,2.76.09,4.18.19c3.9.09,7.52.28,11.14.28s7.32.1,10.94,0c3.81,0,7.52-.09,11.61-.28s8.37-.29,13-.48a2.13,2.13,0,0,0,.85-.19A1.63,1.63,0,0,0,312,351c.19-.29.38-.48.38-.77a2.67,2.67,0,0,0,.19-.95v-4.95a6.88,6.88,0,0,1,.19-1.33c.19-.47.38-.76.57-1.14a2.21,2.21,0,0,1,.86-.76,2.36,2.36,0,0,1,1.05-.38h.09l8.57-.48H324v-.09l-.19-10.47a7.31,7.31,0,0,1,.48-2.86,4.63,4.63,0,0,1,1.14-1.61,3.76,3.76,0,0,1,1.62-.86c.57-.19,1.14-.28,1.8-.48a4.71,4.71,0,0,0,.48-.09c.1,0,.38-.1.48-.1s.38-.09.47-.09a1.07,1.07,0,0,0,.48-.19l1.23-.48c.39-.19.58-.38.77-.47a.85.85,0,0,0,.38-.48c0-.09.19-.38.19-.47.09-.58.09-3.14.09-7S333.51,305.18,333.51,299.47Zm-157.69-8.09c-.09,3.91-.38,7.33-.57,9.62a.85.85,0,0,1-.28.66,2.08,2.08,0,0,1-.48.48,2.39,2.39,0,0,1-.67.38,1.47,1.47,0,0,1-.57.09h-3.33c-.19,0-.38,0-.38.1a1.38,1.38,0,0,0-.38.28c-.09.19-.19.29-.28.48a1.15,1.15,0,0,0-.1.57v2.28c0,1.24,0,2.67.1,4.19s.09,3.05.09,4.28v2.48a2.74,2.74,0,0,1-.09.85,4.84,4.84,0,0,1-.38.67,2.5,2.5,0,0,1-.58.48,1.83,1.83,0,0,1-.66.19h-6.85c-.1,0-.38,0-.38.09a1.25,1.25,0,0,0-.38.29,1.92,1.92,0,0,0-.29.47,1.26,1.26,0,0,0-.09.57v7.33c0,.48-.86.86-2.38,1.33a51.85,51.85,0,0,1-6.09.86c-2.48.29-5.33.38-8.38.48s-6.18.09-9.32,0c-2.67-.1-5.33-.19-7.71-.38s-4.57-.48-6.57-.67a30.86,30.86,0,0,1-4.57-1.05c-1-.47-1.71-.85-1.71-1.42a13.11,13.11,0,0,0-.09-1.62c0-.67-.1-1.52-.19-2.38s-.1-1.71-.2-2.38a10.44,10.44,0,0,1-.09-1.33c0-.1,0-.38-.1-.48a1.93,1.93,0,0,0-.28-.47l-.38-.38a.56.56,0,0,0-.38-.1.54.54,0,0,1-.38-.1c-.19,0-.38-.09-.57-.09a8.93,8.93,0,0,0-1-.19c-.38,0-1-.1-1.71-.1s-1.24-1.52-1.72-3.9-.66-5.42-1-8.56-.38-6.19-.38-8.66-.09-4-.09-4.09c0-3.91-.1-7.33-.19-10.38v-8a44.66,44.66,0,0,1,.47-5.71,11.43,11.43,0,0,1,1.24-3.71c.38-.86,1.62-1.62,3.61-2.28a.35.35,0,0,0,.29-.1,45.87,45.87,0,0,1,7.8-1.71c1-.19,2.19-.38,3.33-.48,2.48-.28,5-.47,7.62-.66,4-.29,8.18-.48,12.46-.58,3.9-.09,7.81-.09,11.61,0s7.24.29,10.28.48a56.06,56.06,0,0,1,7.61,1.14c1.91.48,3.24,1.05,3.71,1.62s.86,2.38,1.05,5c0,.19,0,.48.1.57.28,3.05.38,7,.47,11.14A78.17,78.17,0,0,1,175.82,291.38Zm137.51,5.43c0,2.66-.09,6.18-.28,9.71a81.27,81.27,0,0,1-.95,9.51c-.48,2.57-1.05,4.28-2,4.28H308c-.47,0-.95.1-1.23.1a2.5,2.5,0,0,1-.76.09,3.48,3.48,0,0,0-.48.1.91.91,0,0,0-.48.09c-.19.1-.38.19-.38.39s-.28.38-.28.47a1.36,1.36,0,0,0-.1.57,12.67,12.67,0,0,1-.09,1.52c0,.77-.1,1.72-.19,2.67s-.1,1.9-.1,2.76-.09,1.43-.09,1.81c0,.57-.76,1.14-2.1,1.52a28.69,28.69,0,0,1-5.52,1c-2.38.29-5,.38-8,.48s-6,.09-9.23,0c-3.71-.1-7.42-.29-10.94-.48s-6.76-.47-9.62-.86a52,52,0,0,1-6.85-1.23c-1.71-.48-2.57-.95-2.57-1.43v-7.61c0-.19,0-.48-.09-.57a2.24,2.24,0,0,0-.29-.48,1.24,1.24,0,0,0-.38-.38,1,1,0,0,0-.47-.1h-7.52a2.08,2.08,0,0,1-.76-.19c-.29-.09-.38-.28-.57-.47s-.38-.48-.38-.76a2.69,2.69,0,0,1-.2-.86v-13.7c0-.19,0-.48-.09-.57s-.19-.38-.29-.48a1.24,1.24,0,0,0-.38-.38,1,1,0,0,0-.47-.1h-3.62a1,1,0,0,1-.66-.19,1.47,1.47,0,0,1-.67-.38c-.29-.19-.38-.38-.57-.47a1,1,0,0,1-.29-.67,98.7,98.7,0,0,1-.85-10c-.29-4.09-.38-8.57-.38-12.75s0-8.38.28-11.42c.1-.95.19-1.71.29-2.48v-.09c.28-1.71.47-2.95.85-3.24.38-.66,1.81-1.33,3.9-1.9a75.63,75.63,0,0,1,8.28-1.43c3.33-.47,7.24-.76,11.42-1s8.66-.48,13.14-.48c2,0,4-.09,6-.09,2.95,0,5.9,0,8.76.09,4.75.19,9.32.48,13.32.76,4,.48,7.42.95,10,1.52s4.19,1.43,4.57,2.48a10.87,10.87,0,0,1,1.71,4.09,48.55,48.55,0,0,1,.76,6.47c.19,2.57.19,5.52.19,8.95s0,7.32.1,11.7C313.33,292.34,313.43,294.14,313.33,296.81Z" transform="translate(-11.28 -11.53)" style="fill:none;stroke:#000;stroke-linejoin:round;stroke-width:4px"/><path d="M313.33,292.24c0-4.38,0-8.28-.09-11.7s-.1-6.38-.19-9a38.37,38.37,0,0,0-.76-6.47,10.21,10.21,0,0,0-1.72-4.09c-.38-.95-2-1.81-4.56-2.48A56.85,56.85,0,0,0,296,257c-4-.47-8.56-.67-13.32-.76-2.85-.1-5.8-.1-8.75-.1-2,0-4,0-6,.1-4.57.09-8.94.29-13.13.48s-8.09.57-11.42,1-6.19.95-8.28,1.43-3.43,1.24-3.9,1.9a7.12,7.12,0,0,0-.86,3.24c.38-.1,0,.09,0,.09-.09.76-.19,1.53-.28,2.48-.29,3.14-.29,7.13-.29,11.42s.19,8.75.38,12.75.48,7.61.86,10a1.46,1.46,0,0,0,.28.67c.19.19.38.47.57.47a2.28,2.28,0,0,0,.67.38,2.32,2.32,0,0,0,.67.19h3.71a3.62,3.62,0,0,1,.47.1.71.71,0,0,1,.38.38,2.24,2.24,0,0,0,.29.48,1.26,1.26,0,0,1,.09.57V318a3,3,0,0,0,.19.86c.1.28.29.47.39.76a.7.7,0,0,0,.57.47,2.08,2.08,0,0,0,.76.19h7.52c.19,0,.38,0,.47.1a.71.71,0,0,1,.38.38c.1.19.19.29.29.48a1.26,1.26,0,0,1,.09.57v7.61c0,.48.95.95,2.57,1.43a55.28,55.28,0,0,0,6.85,1.23c2.86.38,6.09.67,9.62.86s7.23.48,10.94.48c3.14.09,6.28.09,9.23,0s5.61-.19,8-.48a29,29,0,0,0,5.52-1c1.33-.48,2.1-.86,2.1-1.52a15,15,0,0,1,.09-1.81c0-.76.1-1.81.1-2.76s.09-1.9.19-2.67.09-1.33.09-1.52.1-.47.1-.57a2.25,2.25,0,0,1,.28-.48c.1-.19.29-.28.38-.38a1.09,1.09,0,0,1,.48-.09c.09,0,.38,0,.47-.1s.39-.09.77-.09a4.38,4.38,0,0,1,1.23-.1h2.1c.85,0,1.52-1.71,2-4.28s.76-6.09.95-9.52.28-7,.28-9.7A26.06,26.06,0,0,0,313.33,292.24Zm-27.88-9.61v.28a.21.21,0,0,1-.19.2c-.1.09-.1.09-.19.09s-.19.1-.29.1l-15.32.09v12.94h15.32a.35.35,0,0,1,.29.1.31.31,0,0,1,.28.28c0,.1.1.19.1.29v16.94c0,.09-.1.09-.1.19s-.09.09-.19.09h-.28L267.75,314h-.29a.36.36,0,0,1-.19-.09c-.09-.1-.09-.1-.09-.19s-.1-.19-.1-.29V298.81l-15-.1h-.29a.31.31,0,0,1-.28-.28c0-.1-.1-.19-.1-.29l-.09-16.37a.35.35,0,0,1,.09-.28.31.31,0,0,1,.1-.19c.09-.1.09-.1.19-.1H252l15.13-.09V266a.31.31,0,0,1,.1-.19c.09-.1.09-.1.19-.1s.19-.09.28-.09l17.32-.29h.29a.35.35,0,0,1,.19.1c.1.09.1.09.1.19s.09.19.09.28Z" transform="translate(-11.28 -11.53)" style="fill:none;stroke:#000;stroke-miterlimit:10;stroke-width:4px"/><path d="M175.92,278.92c-.1-4.09-.19-8.09-.48-11.14a1.09,1.09,0,0,0-.09-.57c-.29-2.66-.57-4.56-1-5-.38-.67-1.71-1.24-3.71-1.62a56.31,56.31,0,0,0-7.61-1.14c-3-.29-6.57-.48-10.28-.48s-7.61-.09-11.61,0c-4.28.1-8.47.29-12.47.58-2.66.19-5.33.47-7.61.66-1.14.19-2.28.29-3.33.48a47.72,47.72,0,0,0-7.8,1.71.35.35,0,0,0-.29.1c-2,.66-3.24,1.42-3.62,2.28a9.47,9.47,0,0,0-1.23,3.71,42.9,42.9,0,0,0-.48,5.71v8c.1,3.05.1,6.47.19,10.38,0,.09,0,1.71.1,4.09s.19,5.52.38,8.66a66.26,66.26,0,0,0,.95,8.56c.38,2.29,1,3.9,1.71,3.9a8.73,8.73,0,0,1,1.71.1,3.23,3.23,0,0,1,1,.19c.29,0,.38.09.57.09s.29.1.38.1.29,0,.38.1a.71.71,0,0,1,.38.38,1.92,1.92,0,0,1,.29.47,1,1,0,0,1,.1.48,10.44,10.44,0,0,0,.09,1.33c0,.67.1,1.52.19,2.38s.1,1.71.19,2.38a11.81,11.81,0,0,1,.1,1.62c0,.47.66,1,1.71,1.42a18.13,18.13,0,0,0,4.57,1.05c1.9.29,4.09.48,6.56.67s5,.28,7.71.38c3.14.09,6.28.09,9.33,0s5.9-.29,8.37-.48a51.23,51.23,0,0,0,6.09-.86c1.52-.38,2.38-.76,2.38-1.33v-7.33c0-.19,0-.47.1-.57a1.93,1.93,0,0,1,.28-.47c.1-.1.29-.29.38-.29a.76.76,0,0,1,.38-.09h6.85a1.43,1.43,0,0,0,.67-.19,2.69,2.69,0,0,0,.57-.48,2.24,2.24,0,0,0,.38-.66,2.56,2.56,0,0,0,.1-.86v-2.48c0-1.23-.1-2.76-.1-4.28s-.09-3-.09-4.19V304a1.09,1.09,0,0,1,.09-.57,2.24,2.24,0,0,1,.29-.48c.09-.09.28-.28.38-.28a.68.68,0,0,1,.38-.1h3.33c.19,0,.38-.09.57-.09a2.54,2.54,0,0,0,.67-.38l.47-.48a1.34,1.34,0,0,0,.29-.66c.28-2.29.47-5.81.57-9.62C175.92,287.39,176,283.11,175.92,278.92ZM158.6,297.86c0,.09-.1.09-.1.19a.32.32,0,0,1-.19.09h-.19l-13.22-.09.28,13.7v.19c0,.09-.09.09-.09.19a.36.36,0,0,1-.19.09h-.19L130.15,312H130c-.1,0-.1-.09-.2-.09s-.09-.1-.09-.19v-.19l-.38-15.13v-.19c0-.1.09-.1.09-.19a.35.35,0,0,1,.19-.1H142.8l-.28-12.08-13,.09h-.19c-.1,0-.1-.09-.19-.09s-.1-.1-.1-.19,0-.19-.09-.19l-.38-15.23v-.19c0-.1.09-.1.09-.19s.1-.1.19-.1H129l14.66-.28h.19c.09,0,.09.09.19.09s.09.1.09.19a.31.31,0,0,0,.1.19l.28,13.8,13.33-.09H158c.09,0,.09.09.19.09s.09.1.09.19a.31.31,0,0,0,.1.19l.28,15.52C158.69,297.76,158.69,297.76,158.6,297.86Z" transform="translate(-11.28 -11.53)" style="fill:none;stroke:#000;stroke-miterlimit:10;stroke-width:4px"/><path d="M456.74,178.33c-2.76,25.79-7.42,51.39-11.42,76.89-.66,4.09-1.23,8.09-1.81,12.18-5.71-4.09-11.22-8.56-18.17-10.56-3.9-1.24-5.14.29-5.43,3.81-.66,6.18-2,12.27-3.14,18.36-2.66,14.09-11.32,22.94-23,29.41-4,2.28-8,5.71-12.84,1.52s-6.57-9-6-15.42c1.33-16.08,4.86-31.87,7.62-47.77.09-.66.19-1.42.38-3.14a163.82,163.82,0,0,1-30.46,15.9,164.59,164.59,0,0,1-18.84,5.7c-1.33.39-2.66.67-4,1-4.95,1.14-9.43-.38-13.52-2.95-2.57-5.24-3.42-10.47.29-15.52a87.65,87.65,0,0,0,26.45-8.94c12.75-6.85,23.13-17.22,30.84-31.59,2-3.72,4.09-8.47,9-7.33,5.32,1.24,6.94,6.18,7.61,11.23a36.66,36.66,0,0,1,.09,6.47V228c8.09-6.86,11.23-14.94,13.61-23.32a115,115,0,0,0,3.52-35.21c-.19-3.14.29-5.9,3.62-7a11.29,11.29,0,0,1,14.37,7.9,33,33,0,0,1,1.52,9.7c-.38,8.57.48,17.13-1.05,25.89,1.81-.48,1.81-1.52,2.29-2.38,4.66-10.75,4.19-22.27,3-33.4-1.52-13.8-8-25.51-21.5-30.55-9.8-3.71-16.37-10.75-22.56-18.84-3.8-5-6.37-11.14-12.75-13.51-1.81-1.72-2.85-4.38-5.52-5-2.66-2.86-5.33-5.62-8.09-8.47-1-1-1.8-1.91-2.66-2.86-6.76-7.13-9.61-16.08-11.42-25.6-1.33-10.46-4.57-20.46-6.85-30.73-1.14-5.05-1.24-9.8,3.14-13.23,4.76-3.71,9.9-2.57,14.37.48C372.9,32.35,381,48,384.89,66c2.1,9.61,2,19.51,1,29.12-.48,4.57.85,5.61,4.75,6.09,15,2.09,29.41,6.28,41.49,16.08C450.65,132.75,459.41,153.21,456.74,178.33Z" transform="translate(-11.28 -11.53)" style="fill:none;stroke:#000;stroke-miterlimit:10;stroke-width:4px"/></svg>